<?xml version="1.0" encoding="UTF-8"?>
<svg id="Layer_1" data-name="Layer 1" xmlns="http://www.w3.org/2000/svg" width="193.1" height="180.7" viewBox="0 0 193.1 180.7">
  <defs>
    <style>
      .cls-1 {
        fill: #a3c94d;
      }

      .cls-2 {
        fill: #2d3d66;
      }

      .cls-3 {
        fill: #2d3c65;
      }
    </style>
  </defs>
  <path class="cls-1" d="M27.9,85.2c9.2,1.7,14.4,9.1,16.7,13.4-1.5-2.4-4.3-5.7-8.9-6.6-7.5-1.4-15.9,5.6-15.9,5.6,0,0,7.3,7.5,13.7,7.5s11.7-3.3,12.5-3.7c0,.1,0,.2,0,.2,0,0-10.7,6.6-22,6.6S0,95.1,0,95.1c0,0,14.8-12.3,27.9-9.9h0Z"/>
  <path class="cls-1" d="M41.1,138.1c7.8-5.3,16.6-3.7,21.3-2.3-2.8-.7-7.1-1-11,1.6-6.3,4.3-7.3,15.2-7.3,15.2,0,0,10.4.2,15-4.4,4.3-4.3,6-10.6,6.2-11.4.1,0,.2.1.2.1,0,0-2.9,12.2-10.9,20.2-8,8-26.3,7.7-26.3,7.7,0,0,1.7-19.2,12.8-26.7h0Z"/>
  <path class="cls-1" d="M38.4,109.9c7.9-1.6,14.4,2.5,17.6,5.2-2-1.5-5.3-3.1-9.2-2.3-6.4,1.3-10.8,9.7-10.8,9.7,0,0,8.2,3.6,13.3,1.5,4.8-2,8.2-6.4,8.7-7,0,0,.1.1.1.1,0,0-6.3,8.7-15.3,12.4-9,3.7-23.4-2.6-23.4-2.6,0,0,7.7-14.6,19-16.9h0Z"/>
  <path class="cls-1" d="M38.9,81.6c7.9,1.7,14.4-2.5,17.6-5.1-2,1.4-5.3,3.1-9.2,2.3-6.4-1.4-10.8-9.7-10.8-9.7,0,0,8.2-3.5,13.4-1.4,4.8,2,8.2,6.5,8.6,7.1,0,0,.1-.1.1-.1,0,0-6.3-8.8-15.2-12.5-9-3.7-23.4,2.5-23.4,2.5,0,0,7.6,14.7,18.9,17.1h0Z"/>
  <g>
    <path class="cls-1" d="M165.1,85.2c-9.2,1.7-14.4,9.1-16.7,13.4,1.5-2.4,4.3-5.7,8.9-6.6,7.5-1.4,15.9,5.6,15.9,5.6,0,0-7.3,7.5-13.7,7.5s-11.7-3.3-12.5-3.7c0,.1,0,.2,0,.2,0,0,10.7,6.6,22,6.6s24-13.1,24-13.1c0,0-14.8-12.3-27.9-9.9h0Z"/>
    <path class="cls-1" d="M85.2,28c1.7,9.2,9.1,14.4,13.4,16.7-2.4-1.5-5.7-4.3-6.6-8.9-1.4-7.5,5.6-15.9,5.6-15.9,0,0,7.5,7.3,7.5,13.7s-3.3,11.7-3.7,12.5c.1,0,.2,0,.2,0,0,0,6.6-10.7,6.6-22S95.1,0,95.1,0c0,0-12.3,14.8-9.9,27.9h0Z"/>
    <path class="cls-1" d="M138.1,152c-5.3-7.8-3.7-16.6-2.3-21.2-.7,2.8-1,7.1,1.6,11,4.3,6.3,15.2,7.3,15.2,7.3,0,0,.2-10.4-4.4-15-4.3-4.3-10.6-6-11.4-6.2,0-.1.1-.2.1-.2,0,0,12.2,2.9,20.2,10.9,8,8,7.7,26.3,7.7,26.3,0,0-19.2-1.7-26.7-12.8h0Z"/>
    <path class="cls-1" d="M147.3,65.2c-6.8,4.4-8.5,11.9-8.9,16.1.4-2.4,1.6-6,4.9-8.1,5.5-3.6,14.5-.7,14.5-.7,0,0-3.3,8.3-8.5,10.4-4.8,2-10.4,1.2-11.1,1.1v.2s10.6,1.7,19.6-2,14.8-18.3,14.8-18.3c0,0-15.8-5-25.4,1.3h0Z"/>
    <path class="cls-1" d="M65.2,45.8c4.4,6.8,11.9,8.5,16.1,8.9-2.4-.4-6-1.6-8.1-4.9-3.6-5.5-.7-14.5-.7-14.5,0,0,8.3,3.3,10.4,8.5,2,4.8,1.2,10.4,1.1,11.1h.2s1.7-10.6-2-19.6-18.3-14.8-18.3-14.8c0,0-5,15.8,1.3,25.4h0Z"/>
    <path class="cls-1" d="M109.9,154.7c-1.6-7.9,2.5-14.4,5.2-17.6-1.5,2-3.1,5.3-2.3,9.2,1.3,6.4,9.7,10.8,9.7,10.8,0,0,3.6-8.2,1.5-13.3-2-4.8-6.4-8.2-7-8.7,0,0,.1-.1.1-.1,0,0,8.7,6.3,12.4,15.3,3.7,9-2.6,23.4-2.6,23.4,0,0-14.6-7.7-16.9-19h0Z"/>
    <path class="cls-1" d="M111.4,38.9c-1.7,7.9,2.5,14.4,5.1,17.6-1.4-2-3.1-5.3-2.3-9.2,1.4-6.4,9.7-10.8,9.7-10.8,0,0,3.5,8.2,1.4,13.4-2,4.8-6.5,8.2-7.1,8.6,0,0,.1.1.1.1,0,0,8.8-6.3,12.5-15.2,3.7-9-2.5-23.4-2.5-23.4,0,0-14.7,7.6-17.1,18.9h0Z"/>
    <path class="cls-1" d="M66,147.6c4.4-6.7,12-8.4,16.1-8.8-2.4.4-6,1.5-8.2,4.9-3.6,5.5-.8,14.5-.8,14.5,0,0,8.4-3.3,10.5-8.4,2-4.8,1.3-10.4,1.2-11.1h.2s1.7,10.6-2.1,19.6c-3.7,9-18.4,14.7-18.4,14.7,0,0-4.9-15.8,1.4-25.4h0Z"/>
    <path class="cls-1" d="M147.6,127.1c-6.7-4.4-8.4-12-8.8-16.1.4,2.4,1.5,6,4.9,8.2,5.5,3.6,14.5.8,14.5.8,0,0-3.3-8.4-8.4-10.5-4.8-2-10.4-1.3-11.1-1.2v-.2s10.6-1.7,19.6,2.1c9,3.7,14.7,18.4,14.7,18.4,0,0-15.8,4.9-25.4-1.4h0Z"/>
    <g>
      <path class="cls-2" d="M84.9,114.1c-.6,44.8,22.4,66.6,26.6,66.7-4.5-10.8-10.4-26.8-6.5-57,6.4-48.6,48.3-75.2,68.5-82.5-54.5,9.2-76.9,52.3-76.9,52.3-23.3-41-57.2-46.1-57.2-46.1,0,0,46.2,15.6,45.5,66.7h0Z"/>
      <ellipse class="cls-3" cx="98.8" cy="72.5" rx="11.7" ry="7.6" transform="translate(2.8 148.6) rotate(-74.6)"/>
    </g>
  </g>
</svg>